<svg width="26" height="25" viewBox="0 0 26 25" fill="none" xmlns="http://www.w3.org/2000/svg">
<path d="M15.2218 2.08072C14.0224 0.63976 11.8098 0.639761 10.6104 2.08072L7.6227 5.66998C7.51626 5.79786 7.37959 5.89715 7.22508 5.95887L2.88824 7.69119C1.14716 8.38666 0.463444 10.4909 1.46323 12.0769L3.95356 16.0275C4.04229 16.1683 4.09449 16.3289 4.10545 16.495L4.41283 21.1548C4.53623 23.0256 6.32622 24.3261 8.14357 23.8654L12.6703 22.7177C12.8316 22.6769 13.0006 22.6769 13.1618 22.7177L17.6887 23.8654C19.506 24.3261 21.296 23.0256 21.4194 21.1548L21.7268 16.495C21.7377 16.3289 21.7899 16.1683 21.8787 16.0275L24.369 12.0769C25.3688 10.4909 24.6851 8.38666 22.944 7.69119L18.6071 5.95887C18.4526 5.89715 18.316 5.79786 18.2095 5.66998L15.2218 2.08072Z" fill="url(#paint0_radial)"/>
<path d="M15.2218 2.08072C14.0224 0.63976 11.8098 0.639761 10.6104 2.08072L7.6227 5.66998C7.51626 5.79786 7.37959 5.89715 7.22508 5.95887L2.88824 7.69119C1.14716 8.38666 0.463444 10.4909 1.46323 12.0769L3.95356 16.0275C4.04229 16.1683 4.09449 16.3289 4.10545 16.495L4.41283 21.1548C4.53623 23.0256 6.32622 24.3261 8.14357 23.8654L12.6703 22.7177C12.8316 22.6769 13.0006 22.6769 13.1618 22.7177L17.6887 23.8654C19.506 24.3261 21.296 23.0256 21.4194 21.1548L21.7268 16.495C21.7377 16.3289 21.7899 16.1683 21.8787 16.0275L24.369 12.0769C25.3688 10.4909 24.6851 8.38666 22.944 7.69119L18.6071 5.95887C18.4526 5.89715 18.316 5.79786 18.2095 5.66998L15.2218 2.08072Z" fill="url(#paint1_linear)"/>
<path d="M15.2218 2.08072C14.0224 0.63976 11.8098 0.639761 10.6104 2.08072L7.6227 5.66998C7.51626 5.79786 7.37959 5.89715 7.22508 5.95887L2.88824 7.69119C1.14716 8.38666 0.463444 10.4909 1.46323 12.0769L3.95356 16.0275C4.04229 16.1683 4.09449 16.3289 4.10545 16.495L4.41283 21.1548C4.53623 23.0256 6.32622 24.3261 8.14357 23.8654L12.6703 22.7177C12.8316 22.6769 13.0006 22.6769 13.1618 22.7177L17.6887 23.8654C19.506 24.3261 21.296 23.0256 21.4194 21.1548L21.7268 16.495C21.7377 16.3289 21.7899 16.1683 21.8787 16.0275L24.369 12.0769C25.3688 10.4909 24.6851 8.38666 22.944 7.69119L18.6071 5.95887C18.4526 5.89715 18.316 5.79786 18.2095 5.66998L15.2218 2.08072Z" stroke="url(#paint2_linear)" stroke-width="2"/>
<defs>
<radialGradient id="paint0_radial" cx="0" cy="0" r="1" gradientUnits="userSpaceOnUse" gradientTransform="translate(11.623 7.77038) rotate(68.1659) scale(12.3734 10.8518)">
<stop stop-color="#FFF971"/>
<stop offset="0.998649" stop-color="#FFB82E"/>
</radialGradient>
<linearGradient id="paint1_linear" x1="8.50436" y1="3.44736" x2="14.019" y2="14.8444" gradientUnits="userSpaceOnUse">
<stop offset="0.0441176" stop-color="#FFF16F"/>
<stop offset="1" stop-color="#FFDC27" stop-opacity="0"/>
</linearGradient>
<linearGradient id="paint2_linear" x1="1.51906" y1="0.873829" x2="21.372" y2="24.7709" gradientUnits="userSpaceOnUse">
<stop stop-color="#ECD400"/>
<stop offset="1" stop-color="#CF7000"/>
</linearGradient>
</defs>
</svg>
