<svg width="16" height="16" viewBox="0 0 16 16" fill="none" xmlns="http://www.w3.org/2000/svg">
<g clip-path="url(#clip0)">
<path d="M8 6.66715e-05C3.58969 6.66715e-05 0 3.58975 0 8.00008C0 12.4103 3.58969 16.0001 8 16.0001C12.4103 16.0001 16 12.4103 16 8.00008C16 5.24025 14.5986 2.80017 12.4661 1.36205L13.2305 0.381577L10 0.264389L10.9323 3.3334L11.6406 2.42324C13.2849 3.49819 14.4262 5.27287 14.6302 7.33468C14.46 7.34401 14.2999 7.41815 14.1827 7.54195C14.0655 7.66568 14.0001 7.82961 14 8.00008C14.0001 8.17115 14.066 8.33562 14.1841 8.45948C14.3021 8.58335 14.4632 8.65708 14.6341 8.66542C14.3229 11.8217 11.8216 14.3229 8.66533 14.6341C8.657 14.4633 8.58327 14.3021 8.4594 14.1841C8.3356 14.0661 8.17107 14.0002 8 14.0001C7.82893 14.0002 7.6644 14.0661 7.5406 14.1841C7.41673 14.3021 7.343 14.4633 7.33467 14.6341C4.17837 14.3229 1.67715 11.8217 1.36589 8.66542C1.53677 8.65708 1.6979 8.58335 1.81593 8.45948C1.93397 8.33562 1.99987 8.17115 2 8.00008C1.99987 7.82895 1.93397 7.66448 1.81593 7.54061C1.6979 7.41681 1.53677 7.34308 1.36589 7.33468C1.69875 3.95937 4.53519 1.3334 8 1.3334C8.08833 1.33465 8.17607 1.31833 8.258 1.28539C8.34 1.25244 8.4146 1.20353 8.47753 1.14151C8.54047 1.07947 8.5904 1.00556 8.62453 0.924055C8.6586 0.842555 8.67613 0.755081 8.67613 0.666733C8.67613 0.578383 8.6586 0.490914 8.62453 0.409409C8.5904 0.327905 8.54047 0.253989 8.47753 0.19196C8.4146 0.12993 8.34 0.0810234 8.258 0.0480806C8.17607 0.0151382 8.08833 -0.00118269 8 6.66715e-05ZM7.9896 3.32429C7.813 3.32705 7.64473 3.39975 7.52167 3.52645C7.39867 3.65314 7.33093 3.82348 7.33333 4.00007V7.66675L4.93359 9.46621C4.79201 9.57221 4.69833 9.73015 4.67319 9.90522C4.64803 10.0803 4.69346 10.2582 4.79948 10.3998C4.90549 10.5414 5.06342 10.6351 5.2385 10.6602C5.41358 10.6853 5.59149 10.6399 5.73307 10.5339L8.39973 8.53395C8.48267 8.47182 8.54993 8.39121 8.59627 8.29855C8.6426 8.20588 8.66673 8.10368 8.66667 8.00008V4.00007C8.66787 3.91087 8.6512 3.82234 8.6176 3.73971C8.584 3.65709 8.53413 3.58205 8.471 3.51903C8.40787 3.45602 8.33273 3.40631 8.25 3.37286C8.16733 3.33941 8.0788 3.32289 7.9896 3.32429Z" fill="white"/>
</g>
<defs>
<clipPath id="clip0">
<rect width="16" height="16" fill="white"/>
</clipPath>
</defs>
</svg>
