<svg width="16" height="16" viewBox="0 0 16 16" fill="none" xmlns="http://www.w3.org/2000/svg">
<path fill-rule="evenodd" clip-rule="evenodd" d="M1.23077 1C0.551035 1 0 1.55103 0 2.23077V13.3077C0 13.9874 0.551034 14.5385 1.23077 14.5385H14.7692C15.449 14.5385 16 13.9874 16 13.3077V2.23077C16 1.55103 15.449 1 14.7692 1H1.23077ZM8 7.15385C8 5.79446 6.89785 4.69231 5.53846 4.69231V7.15385H8ZM4.30769 8.38462V5.92308C2.94831 5.92308 1.84615 7.02523 1.84615 8.38462C1.84615 9.744 2.94831 10.8462 4.30769 10.8462C5.66708 10.8462 6.76923 9.744 6.76923 8.38462H4.30769ZM10.4615 4.69231H11.6923C12.032 4.69231 12.3077 4.968 12.3077 5.30769C12.3077 5.64738 12.032 5.92308 11.6923 5.92308H10.4615C10.1218 5.92308 9.84615 5.64738 9.84615 5.30769C9.84615 4.968 10.1218 4.69231 10.4615 4.69231ZM13.5385 7.15385H10.4615C10.1218 7.15385 9.84615 7.42954 9.84615 7.76923C9.84615 8.10892 10.1218 8.38462 10.4615 8.38462H13.5385C13.8782 8.38462 14.1538 8.10892 14.1538 7.76923C14.1538 7.42954 13.8782 7.15385 13.5385 7.15385ZM9.84615 10.2308C9.84615 9.89108 10.1218 9.61538 10.4615 9.61538H12.9231C13.2628 9.61538 13.5385 9.89108 13.5385 10.2308C13.5385 10.5705 13.2628 10.8462 12.9231 10.8462H10.4615C10.1218 10.8462 9.84615 10.5705 9.84615 10.2308Z" fill="white"/>
</svg>
