<svg width="16" height="16" viewBox="0 0 16 16" fill="none" xmlns="http://www.w3.org/2000/svg">
<path d="M9.99302 0C9.26241 0 8.61498 0.367908 8.22083 0.923056C7.9271 0.730047 7.57737 0.615371 7.20208 0.615371C6.18184 0.615371 5.34146 1.44924 5.34146 2.46154C5.34146 2.67806 5.38729 2.88316 5.45774 3.07691H2.24042C1.55509 3.07691 1 3.62772 1 4.30772V5.53846H15.885V4.30772C15.885 3.62772 15.3299 3.07691 14.6446 3.07691H11.9433C12.08 2.79559 12.1637 2.48492 12.1637 2.15386C12.1637 0.971555 11.1846 0 9.99302 0ZM9.99302 1.23074C10.5145 1.23074 10.9233 1.63642 10.9233 2.15386C10.9233 2.6713 10.5145 3.07691 9.99302 3.07691H9.0627V2.46154V2.15386C9.0627 1.63642 9.47154 1.23074 9.99302 1.23074ZM7.20208 1.84617C7.5525 1.84617 7.82229 2.11386 7.82229 2.46154V3.07691H7.20208C6.85166 3.07691 6.58187 2.80923 6.58187 2.46154C6.58187 2.11386 6.85166 1.84617 7.20208 1.84617ZM1.62021 6.7692V14.7692C1.62021 15.4493 2.17529 16 2.86062 16H14.0244C14.7097 16 15.2648 15.4493 15.2648 14.7692V6.7692H1.62021ZM7.06396 8.61537C7.63021 8.61537 8.12867 8.89043 8.4425 9.30889C8.75632 8.89043 9.25478 8.61537 9.82103 8.61537C10.7724 8.61537 11.5435 9.38052 11.5435 10.3245C11.5435 11.7018 9.52984 13.4237 8.74776 14.0409C8.56728 14.183 8.31771 14.183 8.13723 14.0409C7.35515 13.4237 5.34146 11.7018 5.34146 10.3245C5.34146 9.38052 6.11256 8.61537 7.06396 8.61537Z" fill="white"/>
</svg>
