<svg width="16" height="16" viewBox="0 0 16 16" fill="none" xmlns="http://www.w3.org/2000/svg">
<path d="M12.8571 2C12.384 2 12 2.384 12 2.85714V2.92299L5.71429 4.85714V10.5714L12 12.5056V12.5714C12 13.0446 12.384 13.4286 12.8571 13.4286C13.3303 13.4286 13.7143 13.0446 13.7143 12.5714V2.85714C13.7143 2.384 13.3303 2 12.8571 2ZM4.57143 4.97098L1.02902 5.32589C0.445018 5.38418 0 5.87574 0 6.46317V8.96543C0 9.55286 0.445018 10.0444 1.02902 10.1027L2.41741 10.2422L3.07478 14.096C3.12106 14.3709 3.35899 14.5714 3.63727 14.5714H4C4.31543 14.5714 4.57143 14.3154 4.57143 14L4.56919 10.4576H4.57143V4.97098ZM14.8571 6.28571V9.14286L15.1339 9.07366C15.6425 8.94623 16 8.48943 16 7.96543V7.46429C16 6.93971 15.6425 6.48234 15.1339 6.35491L14.8571 6.28571Z" fill="white"/>
</svg>
