<svg width="16" height="16" viewBox="0 0 16 16" fill="none" xmlns="http://www.w3.org/2000/svg">
<path d="M14.7692 1H1.23077C0.550769 1 0 1.55077 0 2.23077V13.3077C0 13.9877 0.550769 14.5385 1.23077 14.5385H14.7692C15.4492 14.5385 16 13.9877 16 13.3077V2.23077C16 1.55077 15.4492 1 14.7692 1ZM14.7692 3.15385C14.7692 3.66365 14.3559 4.07692 13.8462 4.07692C13.3364 4.07692 12.9231 3.66365 12.9231 3.15385C12.9231 2.64404 13.3364 2.23077 13.8462 2.23077C14.3559 2.23077 14.7692 2.64404 14.7692 3.15385ZM14.7692 6.23077C14.7692 6.74057 14.3559 7.15385 13.8462 7.15385C13.3364 7.15385 12.9231 6.74057 12.9231 6.23077C12.9231 5.72097 13.3364 5.30769 13.8462 5.30769C14.3559 5.30769 14.7692 5.72097 14.7692 6.23077ZM12 8.38462H4C3.83015 8.38462 3.69231 8.24677 3.69231 8.07692C3.69231 7.90708 3.83015 7.76923 4 7.76923H12C12.1698 7.76923 12.3077 7.90708 12.3077 8.07692C12.3077 8.24677 12.1698 8.38462 12 8.38462ZM14.7692 9.30769C14.7692 9.81748 14.3559 10.2308 13.8462 10.2308C13.3364 10.2308 12.9231 9.81748 12.9231 9.30769C12.9231 8.79791 13.3364 8.38462 13.8462 8.38462C14.3559 8.38462 14.7692 8.79791 14.7692 9.30769ZM14.7692 12.3846C14.7692 12.8944 14.3559 13.3077 13.8462 13.3077C13.3364 13.3077 12.9231 12.8944 12.9231 12.3846C12.9231 11.8748 13.3364 11.4615 13.8462 11.4615C14.3559 11.4615 14.7692 11.8748 14.7692 12.3846ZM3.07692 3.15385C3.07692 3.66365 2.66365 4.07692 2.15385 4.07692C1.64404 4.07692 1.23077 3.66365 1.23077 3.15385C1.23077 2.64404 1.64404 2.23077 2.15385 2.23077C2.66365 2.23077 3.07692 2.64404 3.07692 3.15385ZM3.07692 6.23077C3.07692 6.74057 2.66365 7.15385 2.15385 7.15385C1.64404 7.15385 1.23077 6.74057 1.23077 6.23077C1.23077 5.72097 1.64404 5.30769 2.15385 5.30769C2.66365 5.30769 3.07692 5.72097 3.07692 6.23077ZM3.07692 9.30769C3.07692 9.81748 2.66365 10.2308 2.15385 10.2308C1.64404 10.2308 1.23077 9.81748 1.23077 9.30769C1.23077 8.79791 1.64404 8.38462 2.15385 8.38462C2.66365 8.38462 3.07692 8.79791 3.07692 9.30769ZM3.07692 12.3846C3.07692 12.8944 2.66365 13.3077 2.15385 13.3077C1.64404 13.3077 1.23077 12.8944 1.23077 12.3846C1.23077 11.8748 1.64404 11.4615 2.15385 11.4615C2.66365 11.4615 3.07692 11.8748 3.07692 12.3846Z" fill="white"/>
</svg>
