<svg width="0" height="0" class="hidden">
  <symbol viewBox="0 0 16 16" fill="none" xmlns="http://www.w3.org/2000/svg" id="arrow">
    <path fill-rule="evenodd" clip-rule="evenodd" d="M3 2l2-2 8 8-2 2-6 6-2-2 6-6-6-6z" fill="#fff"></path>
  </symbol>
  <symbol viewBox="0 0 16 16" fill="none" xmlns="http://www.w3.org/2000/svg" id="clock">
    <g clip-path="url(#clip0)">
      <path d="M8 0C3.59 0 0 3.59 0 8s3.59 8 8 8 8-3.59 8-8c0-2.76-1.401-5.2-3.534-6.638l.764-.98L10 .264l.932 3.07.709-.91a6.647 6.647 0 0 1 2.99 4.91.666.666 0 0 0 .003 1.331 6.657 6.657 0 0 1-5.969 5.97.666.666 0 0 0-1.33 0 6.657 6.657 0 0 1-5.97-5.97.667.667 0 0 0 0-1.33A6.657 6.657 0 0 1 8 1.333.666.666 0 1 0 8 0zm-.01 3.324A.667.667 0 0 0 7.333 4v3.667l-2.4 1.8a.667.667 0 1 0 .8 1.067l2.667-2A.667.667 0 0 0 8.667 8V4a.667.667 0 0 0-.677-.676z"
        fill="#fff"></path>
    </g>
    <defs>
      <clipPath id="clip0">
        <path fill="#fff" d="M0 0h16v16H0z"></path>
      </clipPath>
    </defs>
  </symbol>
  <symbol viewBox="0 0 16 16" fill="none" xmlns="http://www.w3.org/2000/svg" id="dashboard">
    <path fill-rule="evenodd" clip-rule="evenodd" d="M1.23 1C.552 1 0 1.551 0 2.23v11.078c0 .68.551 1.23 1.23 1.23h13.54c.679 0 1.23-.55 1.23-1.23V2.23C16 1.55 15.449 1 14.77 1H1.23zM8 7.154a2.462 2.462 0 0 0-2.462-2.462v2.462H8zm-3.692 1.23v-2.46a2.462 2.462 0 1 0 2.461 2.46H4.308zm6.153-3.692h1.231a.616.616 0 0 1 0 1.231h-1.23a.616.616 0 0 1 0-1.23zm3.078 2.462H10.46a.616.616 0 0 0 0 1.23h3.078a.616.616 0 0 0 0-1.23zM9.846 10.23c0-.34.276-.616.615-.616h2.462a.616.616 0 0 1 0 1.231h-2.462a.616.616 0 0 1-.615-.615z"
      fill="#fff"></path>
  </symbol>
  <symbol viewBox="0 0 16 16" fill="none" xmlns="http://www.w3.org/2000/svg" id="gift">
    <path d="M9.993 0c-.73 0-1.378.368-1.772.923A1.85 1.85 0 0 0 7.202.615c-1.02 0-1.86.834-1.86 1.847 0 .216.045.421.116.615H2.24c-.685 0-1.24.55-1.24 1.23v1.231h14.885v-1.23c0-.68-.555-1.231-1.24-1.231h-2.702c.137-.281.22-.592.22-.923C12.164.972 11.186 0 9.994 0zm0 1.23c.521 0 .93.406.93.924a.917.917 0 0 1-.93.923h-.93v-.923c0-.518.409-.923.93-.923zm-2.79.616c.35 0 .62.268.62.616v.615h-.62a.608.608 0 0 1-.621-.615c0-.348.27-.616.62-.616zM1.62 6.77v8c0 .68.555 1.231 1.24 1.231h11.164c.686 0 1.24-.55 1.24-1.23v-8H1.62zm5.444 1.846a1.72 1.72 0 0 1 1.379.694 1.72 1.72 0 0 1 1.378-.694c.951 0 1.723.766 1.723 1.71 0 1.377-2.014 3.099-2.796 3.716a.49.49 0 0 1-.61 0c-.783-.617-2.797-2.34-2.797-3.716 0-.944.772-1.71 1.723-1.71z"
      fill="#fff"></path>
  </symbol>
  <symbol viewBox="0 0 16 16" fill="none" xmlns="http://www.w3.org/2000/svg" id="user">
    <g clip-path="url(#clip0)">
      <path d="M10 10.666V9.333c.3-.149 1.159-1.17 1.248-1.968.237-.018.607-.235.716-1.09.06-.46-.174-.717-.316-.799 0 0 .353-.668.353-1.476 0-1.619-.636-3-2-3 0 0-.475-1-2-1-2.829 0-4 1.814-4 4 0 .736.351 1.476.351 1.476-.141.082-.375.34-.316.799.11.855.48 1.072.716 1.09.09.798.948 1.82 1.248 1.968v1.333c-.666 2-6 .667-6 5.334h16c0-4.667-5.333-3.334-6-5.334z"
        fill="#fff"></path>
    </g>
    <defs>
      <clipPath id="clip0">
        <path fill="#fff" d="M0 0h16v16H0z"></path>
      </clipPath>
    </defs>
  </symbol>
  <symbol viewBox="0 0 16 16" fill="none" xmlns="http://www.w3.org/2000/svg" id="megaphone">
    <path d="M12.857 2a.857.857 0 0 0-.857.857v.066L5.714 4.857v5.714L12 12.506v.065a.857.857 0 0 0 1.714 0V2.857A.857.857 0 0 0 12.857 2zM4.571 4.971l-3.542.355A1.143 1.143 0 0 0 0 6.463v2.502c0 .588.445 1.08 1.029 1.138l1.388.14.658 3.853a.57.57 0 0 0 .562.475H4A.572.572 0 0 0 4.571 14l-.002-3.542h.002V4.97zm10.286 1.315v2.857l.277-.07c.508-.127.866-.584.866-1.108v-.5c0-.525-.357-.983-.866-1.11l-.277-.07z"
      fill="#fff"></path>
  </symbol>
</svg>