<svg width="0" height="0" class="hidden">
  <symbol viewBox="0 0 16 16" xmlns="http://www.w3.org/2000/svg" id="arrow">
    <path fill-rule="evenodd" clip-rule="evenodd" d="M3 2l2-2 8 8-2 2-6 6-2-2 6-6-6-6z"></path>
  </symbol>
  <symbol viewBox="0 0 16 16" xmlns="http://www.w3.org/2000/svg" id="clock">
    <g clip-path="url(#clip0)">
      <path d="M8 0C3.59 0 0 3.59 0 8s3.59 8 8 8 8-3.59 8-8c0-2.76-1.401-5.2-3.534-6.638l.764-.98L10 .264l.932 3.07.709-.91a6.647 6.647 0 0 1 2.99 4.91.666.666 0 0 0 .003 1.331 6.657 6.657 0 0 1-5.969 5.97.666.666 0 0 0-1.33 0 6.657 6.657 0 0 1-5.97-5.97.666.666 0 0 0 0-1.33A6.657 6.657 0 0 1 8 1.333.666.666 0 1 0 8 0zm-.01 3.324A.667.667 0 0 0 7.333 4v3.667l-2.4 1.8a.667.667 0 1 0 .8 1.067l2.667-2A.667.667 0 0 0 8.667 8V4a.667.667 0 0 0-.677-.676z"
      ></path>
    </g>
    <defs>
      <clipPath id="clip0">
        <path d="M0 0h16v16H0z"></path>
      </clipPath>
    </defs>
  </symbol>
  <symbol viewBox="0 0 16 16" xmlns="http://www.w3.org/2000/svg" id="dashboard">
    <path fill-rule="evenodd" clip-rule="evenodd" d="M1.23 1C.552 1 0 1.551 0 2.23v11.078c0 .68.551 1.23 1.23 1.23h13.54c.679 0 1.23-.55 1.23-1.23V2.23C16 1.55 15.449 1 14.77 1H1.23zM8 7.154a2.462 2.462 0 0 0-2.462-2.462v2.462H8zm-3.692 1.23v-2.46a2.462 2.462 0 1 0 2.461 2.46H4.308zm6.153-3.692h1.231a.616.616 0 0 1 0 1.231h-1.23a.616.616 0 0 1 0-1.23zm3.078 2.462H10.46a.616.616 0 0 0 0 1.23h3.078a.616.616 0 0 0 0-1.23zM9.846 10.23c0-.34.276-.616.615-.616h2.462a.616.616 0 0 1 0 1.231h-2.462a.616.616 0 0 1-.615-.615z"
    ></path>
  </symbol>
  <symbol viewBox="0 0 16 16" xmlns="http://www.w3.org/2000/svg" id="gift">
    <path fill-rule="evenodd" clip-rule="evenodd" d="M8.8 0H7.2v7.2H0v1.6h7.2V16h1.6V8.8H16V7.2H8.8V0z"></path>
  </symbol>
  <symbol viewBox="0 0 16 16" xmlns="http://www.w3.org/2000/svg" id="megaphone">
    <path d="M10 10.666V9.333c.3-.149 1.158-1.17 1.248-1.968.236-.018.607-.235.716-1.09.059-.46-.175-.718-.316-.799 0 0 .352-.669.352-1.476 0-1.619-.635-3-2-3 0 0-.474-1-2-1-2.828 0-4 1.814-4 4 0 .736.352 1.476.352 1.476-.141.081-.375.34-.316.799.11.855.48 1.072.716 1.09.09.798.948 1.819 1.248 1.968v1.333c-.667 2-6 .667-6 5.333h16c0-4.666-5.333-3.333-6-5.333z"
    ></path>
  </symbol>
</svg>