<svg width="16" height="16" viewBox="0 0 16 16" fill="none" xmlns="http://www.w3.org/2000/svg">
<path d="M10 10.666V9.33268C10.3 9.18402 11.158 8.16268 11.248 7.36468C11.484 7.34668 11.8547 7.13002 11.964 6.27467C12.0227 5.81534 11.7893 5.55734 11.648 5.476C11.648 5.476 12 4.80734 12 4C12 2.38134 11.3647 1 10 1C10 1 9.526 0 8 0C5.172 0 4 1.814 4 4C4 4.736 4.352 5.476 4.352 5.476C4.21067 5.55734 3.97733 5.816 4.036 6.27467C4.14533 7.13002 4.516 7.34668 4.752 7.36468C4.842 8.16268 5.7 9.18402 6 9.33268V10.666C5.33333 12.666 0 11.3327 0 15.9993H16C16 11.3327 10.6667 12.666 10 10.666Z" fill="white"/>
</svg>
