<svg width="16" height="16" viewBox="0 0 16 16" fill="none" xmlns="http://www.w3.org/2000/svg">
<g clip-path="url(#clip0)">
<path d="M10.0004 10.6664V9.33306C10.3004 9.18439 11.1585 8.16301 11.2485 7.36498C11.4845 7.34698 11.8551 7.13031 11.9645 6.27492C12.0232 5.81557 11.7898 5.55756 11.6485 5.47623C11.6485 5.47623 12.0005 4.80753 12.0005 4.00017C12.0005 2.38143 11.3651 1.00004 10.0004 1.00004C10.0004 1.00004 9.52639 0 8.00032 0C5.17221 0 4.00016 1.81408 4.00016 4.00017C4.00016 4.7362 4.35218 5.47623 4.35218 5.47623C4.21084 5.55756 3.97749 5.81624 4.03616 6.27492C4.1455 7.13031 4.51618 7.34698 4.75219 7.36498C4.8422 8.16301 5.70023 9.18439 6.00024 9.33306V10.6664C5.33355 12.6665 0 11.3331 0 16H16.0006C16.0006 11.3331 10.6671 12.6665 10.0004 10.6664Z" fill="white"/>
</g>
<defs>
<clipPath id="clip0">
<rect width="16" height="16" fill="white"/>
</clipPath>
</defs>
</svg>
